# xmcd
#
# Track frame offsets:
# 150
# 13360
# 26767
# 41245
# 55609
# 69660
# 83255
# 97084
# 110798
# 125501
# 151452
# 165457
# 177211
# 188683
# 201708
# 214718
# 227524
# 240087
# 251720
# 261308
#
# Disc length: 3737 seconds
#
#
# Revision: 0
# Processed by: cddbd v1.5.2PL0 Copyright (c) Steve Scherf et al.
# Submitted via: FreeRIP 2.951 
#
DISCID=170e9714
DTITLE=leadbelly - diggin' my potatoes
DYEAR=1900
DGENRE=Blues
TTITLE0=packin' trunk blues
TTITLE1=c.c. rider
TTITLE2=honey, i'm all out and down
TTITLE3=new black snake moan
TTITLE4=alberta
TTITLE5=red river blues
TTITLE6=mr tom hughes' town
TTITLE7=matchbox blues
TTITLE8=pig meat papa
TTITLE9=the burgeois blues
TTITLE10=whoa back, buck
TTITLE11=rock island line
TTITLE12=in the evenin' when the sun goes down
TTITLE13=take this hammer
TTITLE14=irene (goodnight irene)
TTITLE15=eagle rock rag
TTITLE16=grasshoppers in my pillow
TTITLE17=diggin' my potatoes
TTITLE18=corn bread rough
TTITLE19=shine on me
EXTD=
EXTT0=
EXTT1=
EXTT2=
EXTT3=
EXTT4=
EXTT5=
EXTT6=
EXTT7=
EXTT8=
EXTT9=
EXTT10=
EXTT11=
EXTT12=
EXTT13=
EXTT14=
EXTT15=
EXTT16=
EXTT17=
EXTT18=
EXTT19=
PLAYORDER=
